<svg xmlns="http://www.w3.org/2000/svg" xmlns:xlink="http://www.w3.org/1999/xlink" width="80" zoomAndPan="magnify" viewBox="0 0 375 374.999991" height="80" preserveAspectRatio="xMidYMid meet" version="1.0"><defs><g/><clipPath id="e38140d890"><path d="M 92 82 L 285 82 L 285 294 L 92 294 Z M 92 82 " clip-rule="nonzero"/></clipPath><clipPath id="14463b3f19"><path d="M 92.089844 82.722656 L 284.089844 82.667969 L 284.152344 293.417969 L 92.152344 293.472656 Z M 92.089844 82.722656 " clip-rule="nonzero"/></clipPath><clipPath id="a8c9c1061a"><path d="M 82.597656 82.726562 L 293.347656 82.664062 L 293.410156 293.414062 L 82.660156 293.476562 Z M 82.597656 82.726562 " clip-rule="nonzero"/></clipPath><clipPath id="609594c205"><path d="M 82.597656 82.726562 L 293.347656 82.664062 L 293.410156 293.414062 L 82.660156 293.476562 Z M 82.597656 82.726562 " clip-rule="nonzero"/></clipPath></defs><g clip-path="url(#e38140d890)"><g clip-path="url(#14463b3f19)"><g clip-path="url(#a8c9c1061a)"><g clip-path="url(#609594c205)"><path fill="#ffffff" d="M 82.597656 82.726562 L 293.347656 82.664062 L 293.410156 293.414062 L 82.660156 293.476562 Z M 82.597656 82.726562 " fill-opacity="1" fill-rule="nonzero"/></g></g></g></g><g fill="#000000" fill-opacity="1"><g transform="translate(122.251542, 258.479197)"><g><path d="M 130.25 -74.65625 L 130.25 -45.734375 C 126.800781 -29.898438 119.257812 -17.914062 107.625 -9.78125 C 95.988281 -1.644531 83.003906 2.421875 68.671875 2.421875 C 50.679688 2.421875 35.359375 -4.304688 22.703125 -17.765625 C 10.046875 -31.234375 3.71875 -47.503906 3.71875 -66.578125 C 3.71875 -85.960938 9.910156 -102.332031 22.296875 -115.6875 C 34.691406 -129.050781 50.148438 -135.734375 68.671875 -135.734375 C 90.328125 -135.734375 107.457031 -128.140625 120.0625 -112.953125 L 100.1875 -91.140625 C 93.070312 -102.554688 83.160156 -108.265625 70.453125 -108.265625 C 61.078125 -108.265625 53.078125 -104.195312 46.453125 -96.0625 C 39.828125 -87.925781 36.515625 -78.097656 36.515625 -66.578125 C 36.515625 -55.265625 39.828125 -45.59375 46.453125 -37.5625 C 53.078125 -29.539062 61.078125 -25.53125 70.453125 -25.53125 C 78.210938 -25.53125 84.972656 -27.875 90.734375 -32.5625 C 96.492188 -37.25 99.375 -43.46875 99.375 -51.21875 L 68.671875 -51.21875 L 68.671875 -74.65625 Z M 130.25 -74.65625 "/></g></g></g></svg>